<svg id="visual" viewBox="0 0 900 600" width="900" height="600" xmlns="http://www.w3.org/2000/svg" xmlns:xlink="http://www.w3.org/1999/xlink" version="1.1"><rect x="0" y="0" width="900" height="600" fill="#2D3142"></rect><path d="M0 434L82 383L164 404L245 360L327 350L409 366L491 396L573 391L655 351L736 378L818 407L900 411L900 601L818 601L736 601L655 601L573 601L491 601L409 601L327 601L245 601L164 601L82 601L0 601Z" fill="#ef8354"></path><path d="M0 405L82 393L164 377L245 417L327 402L409 419L491 381L573 412L655 416L736 392L818 425L900 457L900 601L818 601L736 601L655 601L573 601L491 601L409 601L327 601L245 601L164 601L82 601L0 601Z" fill="#e8736c"></path><path d="M0 417L82 475L164 425L245 474L327 420L409 452L491 407L573 403L655 418L736 434L818 440L900 466L900 601L818 601L736 601L655 601L573 601L491 601L409 601L327 601L245 601L164 601L82 601L0 601Z" fill="#d66a80"></path><path d="M0 494L82 444L164 453L245 448L327 458L409 491L491 450L573 497L655 432L736 480L818 483L900 481L900 601L818 601L736 601L655 601L573 601L491 601L409 601L327 601L245 601L164 601L82 601L0 601Z" fill="#bc678e"></path><path d="M0 487L82 501L164 512L245 513L327 465L409 476L491 485L573 473L655 516L736 462L818 515L900 478L900 601L818 601L736 601L655 601L573 601L491 601L409 601L327 601L245 601L164 601L82 601L0 601Z" fill="#9d6794"></path><path d="M0 540L82 505L164 516L245 510L327 530L409 503L491 529L573 524L655 516L736 517L818 504L900 500L900 601L818 601L736 601L655 601L573 601L491 601L409 601L327 601L245 601L164 601L82 601L0 601Z" fill="#7e6691"></path><path d="M0 535L82 538L164 561L245 559L327 520L409 530L491 550L573 549L655 533L736 531L818 526L900 530L900 601L818 601L736 601L655 601L573 601L491 601L409 601L327 601L245 601L164 601L82 601L0 601Z" fill="#626386"></path><path d="M0 562L82 565L164 553L245 565L327 559L409 569L491 550L573 551L655 549L736 552L818 565L900 580L900 601L818 601L736 601L655 601L573 601L491 601L409 601L327 601L245 601L164 601L82 601L0 601Z" fill="#4f5d75"></path></svg>