<svg id="visual" viewBox="0 0 900 600" width="900" height="600" xmlns="http://www.w3.org/2000/svg" xmlns:xlink="http://www.w3.org/1999/xlink" version="1.1"><rect x="0" y="0" width="900" height="600" fill="#2D3142"></rect><path d="M0 335L13.7 332.3C27.3 329.7 54.7 324.3 82 314.3C109.3 304.3 136.7 289.7 163.8 293C191 296.3 218 317.7 245.2 313.7C272.3 309.7 299.7 280.3 327 272.7C354.3 265 381.7 279 409 294.5C436.3 310 463.7 327 491 318.8C518.3 310.7 545.7 277.3 573 278C600.3 278.7 627.7 313.3 654.8 321.7C682 330 709 312 736.2 303.2C763.3 294.3 790.7 294.7 818 304C845.3 313.3 872.7 331.7 886.3 340.8L900 350L900 0L886.3 0C872.7 0 845.3 0 818 0C790.7 0 763.3 0 736.2 0C709 0 682 0 654.8 0C627.7 0 600.3 0 573 0C545.7 0 518.3 0 491 0C463.7 0 436.3 0 409 0C381.7 0 354.3 0 327 0C299.7 0 272.3 0 245.2 0C218 0 191 0 163.8 0C136.7 0 109.3 0 82 0C54.7 0 27.3 0 13.7 0L0 0Z" fill="#ef8354"></path><path d="M0 313L13.7 298.3C27.3 283.7 54.7 254.3 82 236.8C109.3 219.3 136.7 213.7 163.8 221.2C191 228.7 218 249.3 245.2 252.2C272.3 255 299.7 240 327 244C354.3 248 381.7 271 409 268.8C436.3 266.7 463.7 239.3 491 236.3C518.3 233.3 545.7 254.7 573 257.3C600.3 260 627.7 244 654.8 233.7C682 223.3 709 218.7 736.2 228.7C763.3 238.7 790.7 263.3 818 263.3C845.3 263.3 872.7 238.7 886.3 226.3L900 214L900 0L886.3 0C872.7 0 845.3 0 818 0C790.7 0 763.3 0 736.2 0C709 0 682 0 654.8 0C627.7 0 600.3 0 573 0C545.7 0 518.3 0 491 0C463.7 0 436.3 0 409 0C381.7 0 354.3 0 327 0C299.7 0 272.3 0 245.2 0C218 0 191 0 163.8 0C136.7 0 109.3 0 82 0C54.7 0 27.3 0 13.7 0L0 0Z" fill="#e8736c"></path><path d="M0 168L13.7 170.8C27.3 173.7 54.7 179.3 82 192.2C109.3 205 136.7 225 163.8 226C191 227 218 209 245.2 208.3C272.3 207.7 299.7 224.3 327 232.3C354.3 240.3 381.7 239.7 409 241.3C436.3 243 463.7 247 491 252C518.3 257 545.7 263 573 260.3C600.3 257.7 627.7 246.3 654.8 239.8C682 233.3 709 231.7 736.2 230.5C763.3 229.3 790.7 228.7 818 224C845.3 219.3 872.7 210.7 886.3 206.3L900 202L900 0L886.3 0C872.7 0 845.3 0 818 0C790.7 0 763.3 0 736.2 0C709 0 682 0 654.8 0C627.7 0 600.3 0 573 0C545.7 0 518.3 0 491 0C463.7 0 436.3 0 409 0C381.7 0 354.3 0 327 0C299.7 0 272.3 0 245.2 0C218 0 191 0 163.8 0C136.7 0 109.3 0 82 0C54.7 0 27.3 0 13.7 0L0 0Z" fill="#d66a80"></path><path d="M0 146L13.7 156.8C27.3 167.7 54.7 189.3 82 194.7C109.3 200 136.7 189 163.8 177.8C191 166.7 218 155.3 245.2 153.3C272.3 151.3 299.7 158.7 327 165.3C354.3 172 381.7 178 409 182.2C436.3 186.3 463.7 188.7 491 191.5C518.3 194.3 545.7 197.7 573 204.3C600.3 211 627.7 221 654.8 217.3C682 213.7 709 196.3 736.2 184.7C763.3 173 790.7 167 818 171.7C845.3 176.3 872.7 191.7 886.3 199.3L900 207L900 0L886.3 0C872.7 0 845.3 0 818 0C790.7 0 763.3 0 736.2 0C709 0 682 0 654.8 0C627.7 0 600.3 0 573 0C545.7 0 518.3 0 491 0C463.7 0 436.3 0 409 0C381.7 0 354.3 0 327 0C299.7 0 272.3 0 245.2 0C218 0 191 0 163.8 0C136.7 0 109.3 0 82 0C54.7 0 27.3 0 13.7 0L0 0Z" fill="#bc678e"></path><path d="M0 185L13.7 173C27.3 161 54.7 137 82 133C109.3 129 136.7 145 163.8 157.8C191 170.7 218 180.3 245.2 176.3C272.3 172.3 299.7 154.7 327 151.7C354.3 148.7 381.7 160.3 409 156.8C436.3 153.3 463.7 134.7 491 132.3C518.3 130 545.7 144 573 150C600.3 156 627.7 154 654.8 151.5C682 149 709 146 736.2 144.8C763.3 143.7 790.7 144.3 818 141.2C845.3 138 872.7 131 886.3 127.5L900 124L900 0L886.3 0C872.7 0 845.3 0 818 0C790.7 0 763.3 0 736.2 0C709 0 682 0 654.8 0C627.7 0 600.3 0 573 0C545.7 0 518.3 0 491 0C463.7 0 436.3 0 409 0C381.7 0 354.3 0 327 0C299.7 0 272.3 0 245.2 0C218 0 191 0 163.8 0C136.7 0 109.3 0 82 0C54.7 0 27.3 0 13.7 0L0 0Z" fill="#9d6794"></path><path d="M0 118L13.7 112C27.3 106 54.7 94 82 95C109.3 96 136.7 110 163.8 116.7C191 123.3 218 122.7 245.2 126.3C272.3 130 299.7 138 327 131.7C354.3 125.3 381.7 104.7 409 104.3C436.3 104 463.7 124 491 133.7C518.3 143.3 545.7 142.7 573 142.7C600.3 142.7 627.7 143.3 654.8 134.5C682 125.7 709 107.3 736.2 101C763.3 94.7 790.7 100.3 818 103.8C845.3 107.3 872.7 108.7 886.3 109.3L900 110L900 0L886.3 0C872.7 0 845.3 0 818 0C790.7 0 763.3 0 736.2 0C709 0 682 0 654.8 0C627.7 0 600.3 0 573 0C545.7 0 518.3 0 491 0C463.7 0 436.3 0 409 0C381.7 0 354.3 0 327 0C299.7 0 272.3 0 245.2 0C218 0 191 0 163.8 0C136.7 0 109.3 0 82 0C54.7 0 27.3 0 13.7 0L0 0Z" fill="#7e6691"></path><path d="M0 80L13.7 80.8C27.3 81.7 54.7 83.3 82 80.2C109.3 77 136.7 69 163.8 64.3C191 59.7 218 58.3 245.2 58.3C272.3 58.3 299.7 59.7 327 60C354.3 60.3 381.7 59.7 409 58.3C436.3 57 463.7 55 491 61C518.3 67 545.7 81 573 82.7C600.3 84.3 627.7 73.7 654.8 74.8C682 76 709 89 736.2 93.2C763.3 97.3 790.7 92.7 818 89.3C845.3 86 872.7 84 886.3 83L900 82L900 0L886.3 0C872.7 0 845.3 0 818 0C790.7 0 763.3 0 736.2 0C709 0 682 0 654.8 0C627.7 0 600.3 0 573 0C545.7 0 518.3 0 491 0C463.7 0 436.3 0 409 0C381.7 0 354.3 0 327 0C299.7 0 272.3 0 245.2 0C218 0 191 0 163.8 0C136.7 0 109.3 0 82 0C54.7 0 27.3 0 13.7 0L0 0Z" fill="#626386"></path><path d="M0 49L13.7 47C27.3 45 54.7 41 82 37.2C109.3 33.3 136.7 29.7 163.8 30C191 30.3 218 34.7 245.2 37.7C272.3 40.7 299.7 42.3 327 47.2C354.3 52 381.7 60 409 63.7C436.3 67.3 463.7 66.7 491 60C518.3 53.3 545.7 40.7 573 33.7C600.3 26.7 627.7 25.3 654.8 30.7C682 36 709 48 736.2 50.3C763.3 52.7 790.7 45.3 818 41.5C845.3 37.7 872.7 37.3 886.3 37.2L900 37L900 0L886.3 0C872.7 0 845.3 0 818 0C790.7 0 763.3 0 736.2 0C709 0 682 0 654.8 0C627.7 0 600.3 0 573 0C545.7 0 518.3 0 491 0C463.7 0 436.3 0 409 0C381.7 0 354.3 0 327 0C299.7 0 272.3 0 245.2 0C218 0 191 0 163.8 0C136.7 0 109.3 0 82 0C54.7 0 27.3 0 13.7 0L0 0Z" fill="#4f5d75"></path></svg>